<svg width="53" height="20" viewBox="0 0 53 20" fill="none" xmlns="http://www.w3.org/2000/svg">
<g clip-path="url(#clip0_17912_22307)">
<path d="M41.4475 15.8859C41.4475 16.1293 41.4112 16.3425 41.3386 16.5255C41.2659 16.7085 41.1611 16.8614 41.0299 16.9821C40.8968 17.1047 40.7374 17.1952 40.5498 17.2556C40.3622 17.3159 40.1525 17.3461 39.9245 17.3461C39.8721 17.3461 39.8136 17.3461 39.747 17.3421C39.6804 17.338 39.6139 17.334 39.5453 17.326C39.4767 17.3179 39.4061 17.3079 39.3375 17.2938C39.2669 17.2797 39.2023 17.2636 39.1459 17.2415C38.9865 17.1832 38.9078 17.0806 38.9078 16.9318V14.7576C38.9078 14.6973 38.924 14.649 38.9562 14.6169C38.9885 14.5827 39.0349 14.5565 39.0954 14.5344C39.2205 14.4942 39.3536 14.468 39.4948 14.456C39.636 14.4439 39.7631 14.4379 39.8801 14.4379C40.1161 14.4379 40.33 14.466 40.5216 14.5243C40.7132 14.5827 40.8786 14.6712 41.0158 14.7918C41.153 14.9125 41.2599 15.0634 41.3365 15.2444C41.4132 15.4254 41.4515 15.6386 41.4515 15.8859H41.4475ZM40.7052 15.894C40.7052 15.5983 40.6325 15.3791 40.4873 15.2343C40.3421 15.0895 40.1524 15.0171 39.9205 15.0171C39.866 15.0171 39.8136 15.0171 39.7651 15.0211C39.7167 15.0231 39.6683 15.0292 39.6179 15.0392V16.7387C39.6582 16.7467 39.7046 16.7548 39.7611 16.7588C39.8176 16.7628 39.8721 16.7648 39.9245 16.7648C40.1625 16.7648 40.3522 16.6924 40.4934 16.5476C40.6346 16.4028 40.7031 16.1836 40.7031 15.892L40.7052 15.894Z" fill="#D6DBE8"/>
<path d="M44.3704 16.6723H43.4728C43.4385 16.7809 43.4082 16.8895 43.378 16.9961C43.3497 17.1027 43.3235 17.1972 43.3013 17.2796C43.261 17.2917 43.2206 17.3018 43.1783 17.3118C43.1359 17.3199 43.0835 17.3259 43.023 17.3259C42.8878 17.3259 42.7869 17.3018 42.7184 17.2555C42.6498 17.2093 42.6155 17.1409 42.6155 17.0524C42.6155 17.0101 42.6215 16.9679 42.6336 16.9297C42.6457 16.8895 42.6599 16.8452 42.676 16.7929C42.6982 16.7105 42.7284 16.6079 42.7668 16.4872C42.8071 16.3645 42.8495 16.2338 42.8979 16.093C42.9443 15.9522 42.9947 15.8054 43.0472 15.6566C43.0996 15.5078 43.15 15.365 43.1985 15.2302C43.2469 15.0955 43.2912 14.9708 43.3316 14.8581C43.3719 14.7455 43.4042 14.655 43.4324 14.5886C43.4788 14.5605 43.5494 14.5363 43.6463 14.5102C43.7431 14.4861 43.8379 14.474 43.9327 14.474C44.0699 14.474 44.1909 14.4921 44.2978 14.5303C44.4027 14.5685 44.4713 14.6309 44.5016 14.7194C44.5601 14.8803 44.6226 15.0673 44.6892 15.2805C44.7557 15.4937 44.8243 15.7129 44.8929 15.9382C44.9615 16.1634 45.0281 16.3867 45.0926 16.6059C45.1572 16.8251 45.2136 17.0222 45.2621 17.1952C45.2278 17.2354 45.1793 17.2676 45.1128 17.2917C45.0462 17.3158 44.9696 17.3279 44.8768 17.3279C44.7456 17.3279 44.6529 17.3058 44.6004 17.2595C44.5459 17.2133 44.5076 17.1429 44.4834 17.0443L44.3725 16.6743L44.3704 16.6723ZM43.9267 15.1095C43.8843 15.2463 43.8319 15.4032 43.7693 15.5782C43.7068 15.7531 43.6483 15.9321 43.5938 16.1152H44.2494C44.197 15.9241 44.1445 15.7391 44.0921 15.5641C44.0376 15.3891 43.9932 15.2383 43.9569 15.1095H43.9287H43.9267Z" fill="#D6DBE8"/>
<path d="M47.7027 15.0855V17.2737C47.6684 17.2817 47.622 17.2918 47.5595 17.2978C47.499 17.3058 47.4344 17.3099 47.3679 17.3099C47.2247 17.3099 47.1238 17.2857 47.0653 17.2375C47.0068 17.1892 46.9786 17.1007 46.9786 16.972V15.0855H46.2584C46.2403 15.0553 46.2221 15.0151 46.206 14.9668C46.1898 14.9185 46.1818 14.8642 46.1818 14.8059C46.1818 14.7033 46.204 14.6269 46.2503 14.5806C46.2967 14.5324 46.3593 14.5103 46.4379 14.5103H48.441C48.4632 14.5404 48.4814 14.5806 48.4955 14.6289C48.5096 14.6772 48.5177 14.7315 48.5177 14.7878C48.5177 14.8884 48.4955 14.9628 48.4491 15.011C48.4027 15.0593 48.3402 15.0835 48.2615 15.0835H47.7027V15.0855Z" fill="#D6DBE8"/>
<path d="M51.2129 16.6723H50.3152C50.2809 16.7809 50.2506 16.8895 50.2204 16.9961C50.1921 17.1027 50.1659 17.1972 50.1437 17.2796C50.1034 17.2917 50.063 17.3018 50.0207 17.3118C49.9783 17.3199 49.9259 17.3259 49.8654 17.3259C49.7302 17.3259 49.6293 17.3018 49.5608 17.2555C49.4922 17.2093 49.4579 17.1409 49.4579 17.0524C49.4579 17.0101 49.4639 16.9679 49.476 16.9297C49.4881 16.8895 49.5023 16.8452 49.5184 16.7929C49.5406 16.7105 49.5708 16.6079 49.6092 16.4872C49.6495 16.3645 49.6919 16.2338 49.7403 16.093C49.7867 15.9522 49.8371 15.8054 49.8896 15.6566C49.942 15.5078 49.9924 15.365 50.0409 15.2302C50.0893 15.0955 50.1336 14.9708 50.174 14.8581C50.2143 14.7455 50.2466 14.655 50.2749 14.5886C50.3212 14.5605 50.3918 14.5363 50.4887 14.5102C50.5855 14.4861 50.6803 14.474 50.7751 14.474C50.9123 14.474 51.0333 14.4921 51.1402 14.5303C51.2451 14.5685 51.3137 14.6309 51.344 14.7194C51.4025 14.8803 51.465 15.0673 51.5316 15.2805C51.5981 15.4937 51.6667 15.7129 51.7353 15.9382C51.8039 16.1634 51.8705 16.3867 51.935 16.6059C51.9996 16.8251 52.056 17.0222 52.1045 17.1952C52.0702 17.2354 52.0218 17.2676 51.9552 17.2917C51.8886 17.3158 51.812 17.3279 51.7192 17.3279C51.5881 17.3279 51.4953 17.3058 51.4428 17.2595C51.3883 17.2133 51.35 17.1429 51.3258 17.0443L51.2149 16.6743L51.2129 16.6723ZM50.7691 15.1095C50.7267 15.2463 50.6743 15.4032 50.6117 15.5782C50.5492 15.7531 50.4907 15.9321 50.4362 16.1152H51.0918C51.0394 15.9241 50.9869 15.7391 50.9345 15.5641C50.88 15.3891 50.8356 15.2383 50.7993 15.1095H50.7711H50.7691Z" fill="#D6DBE8"/>
<path d="M11.8473 11.9295C11.7303 11.9616 11.575 11.9898 11.3814 12.018C11.1897 12.0441 10.9759 12.0582 10.7399 12.0582C10.2598 12.0582 9.91485 11.9797 9.70506 11.8269C9.49729 11.672 9.39239 11.3703 9.39239 10.9239V6.95773C9.39239 6.60577 9.29557 6.34834 9.10393 6.18342C8.9123 6.0185 8.65006 5.93604 8.31924 5.93604C8.10542 5.93604 7.90571 5.97425 7.71811 6.04866C7.53051 6.12308 7.36309 6.21962 7.21381 6.33627C7.2239 6.39057 7.23197 6.44286 7.23802 6.49515C7.24407 6.54946 7.24609 6.60175 7.24609 6.65404V11.9295C7.12909 11.9616 6.97377 11.9898 6.78011 12.018C6.58848 12.0441 6.37466 12.0582 6.13864 12.0582C5.65855 12.0582 5.31361 11.9797 5.10382 11.8269C4.89605 11.672 4.79115 11.3703 4.79115 10.9239V6.95773C4.79115 6.60577 4.68424 6.34834 4.47042 6.18342C4.25659 6.0185 3.99436 5.93604 3.68572 5.93604C3.46181 5.93604 3.25808 5.97023 3.07653 6.04062C2.89498 6.11101 2.74571 6.17738 2.62669 6.23973V11.9315C2.51978 11.9637 2.37051 11.9918 2.17685 12.02C1.98522 12.0461 1.7714 12.0602 1.53538 12.0602C1.05529 12.0602 0.706312 11.9818 0.492488 11.8289C0.278665 11.674 0.171753 11.3724 0.171753 10.9259V5.98229C0.171753 5.70475 0.230252 5.4815 0.34725 5.31055C0.464248 5.13959 0.629658 4.98071 0.843482 4.83188C1.19649 4.58651 1.63221 4.38941 2.15063 4.24058C2.66905 4.09175 3.21168 4.01733 3.77851 4.01733C4.22835 4.01733 4.65196 4.07968 5.05339 4.20035C5.45481 4.32304 5.81992 4.51209 6.15276 4.76752C6.4735 4.55433 6.8366 4.37533 7.24205 4.23253C7.64751 4.08773 8.12962 4.01733 8.68435 4.01733C9.10192 4.01733 9.49931 4.06761 9.87854 4.17019C10.2578 4.27075 10.5926 4.43768 10.8811 4.66495C11.1696 4.89423 11.4015 5.19188 11.579 5.55994C11.7545 5.92799 11.8433 6.37247 11.8433 6.89539V11.9315L11.8473 11.9295Z" fill="#907BE7"/>
<path d="M15.7445 9.11571C15.8938 9.56421 16.156 9.87997 16.5312 10.067C16.9044 10.2541 17.3381 10.3466 17.8303 10.3466C18.2801 10.3466 18.7017 10.2862 19.0971 10.1636C19.4925 10.0409 19.8132 9.90612 20.0593 9.75528C20.2187 9.86187 20.3538 10.0006 20.4607 10.1716C20.5677 10.3426 20.6201 10.5296 20.6201 10.7307C20.6201 10.9761 20.5455 11.1893 20.3962 11.3703C20.2469 11.5513 20.0412 11.7041 19.7789 11.8268C19.5167 11.9495 19.206 12.04 18.849 12.0983C18.4899 12.1567 18.0986 12.1868 17.671 12.1868C17.0396 12.1868 16.4586 12.0983 15.922 11.9234C15.3855 11.7484 14.9276 11.4869 14.5423 11.141C14.157 10.7951 13.8544 10.3607 13.6365 9.83774C13.4167 9.31482 13.3077 8.70341 13.3077 7.99949C13.3077 7.29556 13.4167 6.72639 13.6365 6.22559C13.8564 5.7248 14.1489 5.30848 14.5181 4.97864C14.8872 4.6488 15.3088 4.40544 15.7849 4.25058C16.2609 4.09571 16.7491 4.01929 17.2514 4.01929C17.796 4.01929 18.2963 4.10175 18.7502 4.26667C19.204 4.43159 19.5954 4.66288 19.9201 4.96255C20.2469 5.26021 20.4991 5.6182 20.6826 6.03453C20.8642 6.45085 20.955 6.90337 20.955 7.39411C20.955 7.73602 20.8642 7.99144 20.6826 8.16239C20.5011 8.33335 20.2449 8.44396 19.9121 8.49827L15.7425 9.12175L15.7445 9.11571ZM17.2675 5.82134C16.8076 5.82134 16.4263 5.96212 16.1217 6.2457C15.8171 6.52728 15.6376 6.93555 15.5852 7.46852L18.6473 6.97377C18.6251 6.69622 18.502 6.43476 18.2781 6.1914C18.0542 5.94603 17.7173 5.82335 17.2675 5.82335V5.82134Z" fill="#907BE7"/>
<path d="M24.82 11.9295C24.7131 11.9617 24.5639 11.9898 24.3702 12.018C24.1786 12.0441 23.9648 12.0582 23.7287 12.0582C23.2486 12.0582 22.8997 11.9798 22.6858 11.8269C22.472 11.6721 22.3651 11.3704 22.3651 10.9239V6.04668C22.3651 5.74902 22.4397 5.49359 22.589 5.27839C22.7383 5.0652 22.9481 4.87816 23.2144 4.71927C23.5674 4.50608 23.991 4.33915 24.4892 4.21647C24.9855 4.09378 25.5079 4.03345 26.0526 4.03345C27.164 4.03345 27.7208 4.40753 27.7208 5.15168C27.7208 5.33269 27.6946 5.49761 27.6401 5.64644C27.5856 5.79527 27.5271 5.92399 27.4646 6.03059C27.2185 5.97829 26.92 5.95014 26.5669 5.95014C26.2563 5.95014 25.9477 5.98835 25.637 6.06277C25.3264 6.13718 25.054 6.23774 24.82 6.36646V11.9295Z" fill="#907BE7"/>
<path d="M40.5664 9.11571C40.7157 9.56421 40.9779 9.87997 41.3531 10.067C41.7263 10.2541 42.16 10.3466 42.6522 10.3466C43.102 10.3466 43.5236 10.2862 43.919 10.1636C44.3144 10.0409 44.6351 9.90612 44.8812 9.75528C45.0406 9.86187 45.1757 10.0006 45.2826 10.1716C45.3896 10.3426 45.442 10.5296 45.442 10.7307C45.442 10.9761 45.3674 11.1893 45.2181 11.3703C45.0688 11.5513 44.8631 11.7041 44.6008 11.8268C44.3386 11.9495 44.0279 12.04 43.6709 12.0983C43.3118 12.1567 42.9205 12.1868 42.4928 12.1868C41.8615 12.1868 41.2805 12.0983 40.7439 11.9234C40.2074 11.7484 39.7495 11.4869 39.3642 11.141C38.9789 10.7951 38.6763 10.3607 38.4584 9.83774C38.2386 9.31482 38.1296 8.70341 38.1296 7.99949C38.1296 7.29556 38.2386 6.72639 38.4584 6.22559C38.6783 5.7248 38.9708 5.30848 39.34 4.97864C39.7091 4.6488 40.1307 4.40544 40.6068 4.25058C41.0828 4.09571 41.571 4.01929 42.0733 4.01929C42.6179 4.01929 43.1182 4.10175 43.5721 4.26667C44.0259 4.43159 44.4173 4.66288 44.742 4.96255C45.0688 5.26021 45.321 5.6182 45.5045 6.03453C45.6861 6.45085 45.7769 6.90337 45.7769 7.39411C45.7769 7.73602 45.6861 7.99144 45.5045 8.16239C45.323 8.33335 45.0668 8.44396 44.734 8.49827L40.5644 9.12175L40.5664 9.11571ZM42.0894 5.82134C41.6295 5.82134 41.2482 5.96212 40.9436 6.2457C40.639 6.52728 40.4595 6.93555 40.4071 7.46852L43.4692 6.97377C43.447 6.69622 43.3239 6.43476 43.1 6.1914C42.8761 5.94603 42.5392 5.82335 42.0894 5.82335V5.82134Z" fill="#907BE7"/>
<path d="M51.5659 11.1957H47.0514C46.8163 11.1957 46.6257 11.3857 46.6257 11.62V11.6341C46.6257 11.8685 46.8163 12.0585 47.0514 12.0585H51.5659C51.8009 12.0585 51.9915 11.8685 51.9915 11.6341V11.62C51.9915 11.3857 51.8009 11.1957 51.5659 11.1957Z" fill="url(#paint0_linear_17912_22307)"/>
<path d="M37.0806 14.9366C37.0806 17.3541 35.1078 19.321 32.6831 19.321C30.9443 19.321 29.4395 18.3114 28.7274 16.8452C28.7233 16.8352 28.7173 16.8251 28.7133 16.8171C28.6951 16.7789 28.677 16.7366 28.6608 16.6964C28.6568 16.6883 28.6527 16.6783 28.6507 16.6702C28.6124 16.5637 28.5902 16.451 28.5902 16.3324C28.5902 16.2217 28.6063 16.1172 28.6386 16.0186C28.6709 15.9181 28.7193 15.8255 28.7798 15.7411H30.4602C30.4904 15.7813 30.5146 15.8255 30.5388 15.8698C30.5489 15.8939 30.559 15.916 30.5711 15.9402C30.5731 15.9422 30.5731 15.9442 30.5731 15.9462C30.9503 16.7286 31.7552 17.2716 32.6811 17.2716C33.9741 17.2716 35.0231 16.2238 35.0231 14.9366C35.0231 13.6494 33.9721 12.6016 32.6811 12.6016V10.8478C32.6811 10.7472 32.671 10.6487 32.6508 10.5521H32.6811C35.1058 10.5521 37.0786 12.5191 37.0786 14.9366H37.0806Z" fill="url(#paint1_linear_17912_22307)"/>
<path d="M32.683 12.5994C30.2583 12.5994 28.2855 10.6324 28.2855 8.2149C28.2855 5.79741 30.2583 3.83044 32.683 3.83044C35.1077 3.83044 37.0805 5.79741 37.0805 8.2149C37.0805 10.6324 35.1077 12.5994 32.683 12.5994V12.5994ZM32.683 5.87786C31.392 5.87786 30.3411 6.92571 30.3411 8.2149C30.3411 9.50409 31.392 10.5499 32.683 10.5499C33.974 10.5499 35.027 9.50208 35.027 8.2149C35.027 6.92772 33.9761 5.87786 32.683 5.87786V5.87786Z" fill="url(#paint2_linear_17912_22307)"/>
<path opacity="0.52" d="M32.8525 10.544C32.8525 10.544 34.5914 10.5279 35.5052 11.5758C35.5052 11.5758 36.8284 10.3027 36.9555 9.25884L35.0271 8.45837C35.0271 8.45837 34.904 10.3268 32.8525 10.544V10.544Z" fill="url(#paint3_linear_17912_22307)"/>
<path d="M28.5236 14.8419C29.1051 14.8419 29.5765 14.3719 29.5765 13.792C29.5765 13.2122 29.1051 12.7422 28.5236 12.7422C27.942 12.7422 27.4706 13.2122 27.4706 13.792C27.4706 14.3719 27.942 14.8419 28.5236 14.8419Z" fill="#1BE2C5"/>
<path d="M30.6517 16.3322C30.6517 16.8974 30.1898 17.358 29.6209 17.358C29.2417 17.358 28.9109 17.1528 28.7293 16.8451C28.7253 16.835 28.7192 16.825 28.7152 16.8169C28.6971 16.7787 28.6789 16.7365 28.6628 16.6963C28.6587 16.6882 28.6547 16.6782 28.6527 16.6701C28.6143 16.5635 28.5922 16.4509 28.5922 16.3322C28.5922 16.2216 28.6083 16.117 28.6406 16.0185C28.6728 15.9159 28.7213 15.8234 28.7818 15.7369C28.9694 15.4734 29.276 15.3025 29.6209 15.3025C29.9659 15.3025 30.2745 15.4734 30.4621 15.7369C30.4621 15.7389 30.4641 15.7389 30.4641 15.7409C30.4944 15.7812 30.5186 15.8254 30.5428 15.8697C30.5549 15.8918 30.565 15.9139 30.5751 15.94C30.5771 15.9421 30.5771 15.9441 30.5771 15.9461C30.6255 16.0647 30.6537 16.1935 30.6537 16.3322H30.6517Z" fill="#1BE2C5"/>
<path d="M37.1592 2.62173C37.6628 2.62173 38.071 2.21472 38.071 1.71266C38.071 1.21059 37.6628 0.803589 37.1592 0.803589C36.6557 0.803589 36.2474 1.21059 36.2474 1.71266C36.2474 2.21472 36.6557 2.62173 37.1592 2.62173Z" fill="#907BE7"/>
<path d="M31.6382 3.95516C31.6382 3.95516 33.6574 3.72186 34.8254 2.68206C35.138 2.40451 35.5959 2.36429 35.9449 2.59156C36.4855 2.94553 36.4976 3.72588 35.9752 4.10399C35.3781 4.5364 34.549 4.99697 33.609 5.13172L31.6402 3.95315L31.6382 3.95516Z" fill="#907BE7"/>
</g>
<defs>
<linearGradient id="paint0_linear_17912_22307" x1="47.2047" y1="11.6261" x2="52.1569" y2="11.6261" gradientUnits="userSpaceOnUse">
<stop stop-color="#6043DD"/>
<stop offset="1" stop-color="#1BE2C5"/>
</linearGradient>
<linearGradient id="paint1_linear_17912_22307" x1="31.6261" y1="9.4359" x2="32.7152" y2="14.9016" gradientUnits="userSpaceOnUse">
<stop stop-color="#6043DD"/>
<stop offset="1" stop-color="#1BE2C5"/>
</linearGradient>
<linearGradient id="paint2_linear_17912_22307" x1="32.8585" y1="9.0938" x2="33.9597" y2="14.6118" gradientUnits="userSpaceOnUse">
<stop stop-color="#907BE7"/>
<stop offset="1" stop-color="#1BE2C5"/>
</linearGradient>
<linearGradient id="paint3_linear_17912_22307" x1="35.4729" y1="8.91894" x2="34.0976" y2="11.6193" gradientUnits="userSpaceOnUse">
<stop stop-opacity="0"/>
<stop offset="1"/>
</linearGradient>
<clipPath id="clip0_17912_22307">
<rect width="51.9289" height="18.5173" fill="white" transform="translate(0.17334 0.803589)"/>
</clipPath>
</defs>
</svg>
